# xmcd
#
# Track frame offsets: 
#        183
#        17340
#        36960
#        56560
#
# Disc length: 1457 seconds
#
# Revision: 2
# Processed by: cddbd v1.5.2PL0 Copyright (c) Steve Scherf et al.
# Submitted via: ExactAudioCopy v0.95b4
#
DISCID=2705af04
DTITLE=Garth Brooks - Garth Brooks - The Red Strokes (part 2)
DYEAR=1900
DGENRE=
TTITLE0=The Red Strokes
TTITLE1=Friends In Low Places
TTITLE2=Every Now And Then
TTITLE3=Interview (extracts)
EXTD=
EXTT0=
EXTT1=
EXTT2=
EXTT3=
PLAYORDER=
